<svg width="200" height="200" viewBox="0 0 200 200" xmlns="http://www.w3.org/2000/svg">
  <!-- Hex frame -->
  <path
    fill="none"
    stroke="currentColor"
    stroke-width="6.75668"
    transform="matrix(1.7760201,0,0,1.7760201,-32.924208,-82.846169)"
    d="m 31.542594,126.76095 10e-7,-47.616389 a 2.0642639,2.0642639 120 0 1 1.032132,-1.787705 L 73.811734,53.54866 a 2.0642639,2.0642639 1.2609945e-6 0 1 2.064263,0 L 117.113,77.356858 a 2.0642639,2.0642639 60.000001 0 1 1.03214,1.787705 l -1e-5,47.616397 a 2.0642639,2.0642639 120 0 1 -1.03213,1.7877 l -41.237005,23.8082 a 2.0642639,2.0642639 1.2609945e-6 0 1 -2.064264,0 l -41.237005,-23.8082 a 2.0642639,2.0642639 60.000001 0 1 -1.032132,-1.78771 z"
  />
  <!-- Three overlapping rings (Venn-style) -->
  <circle cx="100" cy="83" r="22" fill="none" stroke="currentColor" stroke-width="6"/>
  <circle cx="82"  cy="115" r="22" fill="none" stroke="currentColor" stroke-width="6"/>
  <circle cx="118" cy="115" r="22" fill="none" stroke="currentColor" stroke-width="6"/>
</svg>
